<svg xmlns="http://www.w3.org/2000/svg" width="123" height="14" viewBox="0 0 123 14" class="text-black">
    <title>Neulabs</title>
    <g fill="currentColor" fill-rule="evenodd">
        <style>
            .letters { fill: #2E2E2E; }
    
            @media (prefers-color-scheme: dark) {
                .letters { fill: #ffffff; }
            }
        </style>
        <path class="letters" d="M119.095 5.986h-6.833a2.136 2.136 0 01-2.148-2.124c0-1.173.962-2.124 2.148-2.124h9.761V0h-9.761c-2.157 0-3.905 1.73-3.905 3.862 0 2.133 1.748 3.862 3.905 3.862h6.833c1.186 0 2.148.951 2.148 2.124a2.136 2.136 0 01-2.148 2.124h-10.25v1.738h10.25c2.157 0 3.905-1.729 3.905-3.862s-1.748-3.862-3.905-3.862M100.743 11.972h-8.786v-2.8c0-.8.656-1.448 1.464-1.448h7.322c1.186 0 2.147.951 2.147 2.124a2.136 2.136 0 01-2.147 2.124zM97.189 1.738h3.261c1.186 0 2.148.951 2.148 2.124a2.136 2.136 0 01-2.148 2.124h-7.029c-.542 0-1.046.163-1.464.443V1.738h5.232zm5.868 5a3.834 3.834 0 001.298-2.876c0-2.133-1.748-3.862-3.905-3.862H90.2v13.71h10.543c2.156 0 3.905-1.729 3.905-3.862a3.843 3.843 0 00-1.591-3.11zM74.549 8.98l2.095-6.095.394-1.147h3.285l.395 1.147 2.095 6.094H74.55zm10.717 1.737L84.67 8.98l-2.712-7.89a1.427 1.427 0 00-.464-.738 1.468 1.468 0 00-.955-.35h-3.714a1.468 1.468 0 00-1.419 1.088l-2.712 7.89-.597 1.738-1.03 2.993h1.857l1.028-2.993h9.46l1.028 2.993h1.856l-1.029-2.993zM56.912 11.972V0h-1.757V13.71h12.69v-1.738zM50.86 0v8.217C50.86 11.73 48.1 14 43.83 14c-4.27 0-7.029-2.27-7.029-5.783V0h1.758v7.925c0 2.635 2.069 4.337 5.271 4.337s5.271-1.702 5.271-4.337V0h1.758zM32.898 1.738V0H20.207V13.71H32.898v-1.738H21.964v-2.8c0-.8.656-1.448 1.465-1.448H30.75V5.986h-7.322c-.543 0-1.047.163-1.465.443V1.738h10.934zM13.471 0v11.972h-2.67c-.703 0-1.29-.49-1.431-1.144l-.005-.023-.576-2.769-.246-1.18-.888-4.267-.02-.099A3.205 3.205 0 005.533.17 3.25 3.25 0 004.491 0H0V13.71h1.757V1.738h2.734a1.461 1.461 0 011.436 1.167l.576 2.769.246 1.181.888 4.266.02.1a3.204 3.204 0 002.107 2.32c.326.11.675.17 1.038.17h4.427V0H13.47z"></path>
    </g>
</svg>