<svg width="136" height="136" viewBox="0 0 136 136" fill="none" xmlns="http://www.w3.org/2000/svg">
<path d="M79.7076 59.5245C79.7076 62.792 80.6412 65.3592 80.8745 68.5099C84.5795 68.5099 84.2586 64.484 85.0755 61.625C84.2295 59.8746 81.954 59.5245 79.7076 59.5245Z" fill="#ECE8D5"/>
<path d="M45.2248 64.1924C46.4339 63.3633 47.5319 62.3829 48.4921 61.275H45.0206C45.1081 62.2377 44.8164 63.5505 45.2248 64.1924Z" fill="#ECE8D5"/>
<path d="M45.6043 69.7351C46.8623 69.6969 48.0974 69.3879 49.2251 68.8291C50.3529 68.2703 51.3468 67.4748 52.1391 66.4969C52.1585 64.885 51.7563 63.2959 50.9722 61.8875C49.0759 60.9831 48.0548 61.8874 46.9463 63.0544C44.9333 64.9214 44.9333 66.4385 45.6043 69.7351Z" fill="#ECE8D5"/>
<path d="M65.7336 38.8991C67.1727 37.8703 68.5197 36.7185 69.7595 35.4566C68.268 35.2988 66.7603 35.4886 65.3544 36.0109C65.5294 36.9153 65.471 38.053 65.7336 38.8991Z" fill="#ECE8D5"/>
<path d="M50.9719 69.9395C49.3326 70.8362 47.4661 71.2318 45.604 71.0772C46.0416 74.6655 45.604 76.9118 45.9833 79.8292C48.2588 77.5537 51.0302 75.8033 53.0724 73.3236C52.5764 71.9233 52.343 70.3479 50.9719 69.9395Z" fill="#ECE8D5"/>
<path d="M32.9427 130.124C32.9427 131.67 32.5926 133.508 33.7304 133.945C33.5931 131.561 33.2712 129.191 32.7676 126.856C32.7255 127.948 32.7841 129.042 32.9427 130.124V130.124Z" fill="#ECE8D5"/>
<path d="M111.156 132.049C112.26 130.384 113.087 128.552 113.607 126.623C112.79 128.373 109.785 131.378 111.856 133.537C112.002 132.049 111.215 132.954 111.156 132.049Z" fill="#ECE8D5"/>
<path d="M110.398 129.745C109.498 131.14 108.726 132.615 108.093 134.15C108.939 134.15 110.164 134.15 109.056 133.771C109.698 133.566 110.339 134.354 110.777 133.771C109.581 133.245 110.514 130.299 110.398 129.745Z" fill="#ECE8D5"/>
<path d="M101.004 123.706C101.325 114.604 100.683 103.08 101.004 94.0074C101.383 82.3381 99.9829 70.4646 99.4578 58.737C98.991 48.4972 97.4448 38.5199 96.2196 29.4178C94.9101 23.0386 92.1446 17.0482 88.1386 11.9139C86.8841 10.5428 85.688 8.9966 84.5211 7.9172C80.3785 3.86212 74.6897 2.69522 68.4175 1.38242L67.6006 2.14087L66.988 2.69516C58.236 10.8637 48.5505 19.1197 40.0028 26.9673C39.972 27.0404 39.9241 27.105 39.8632 27.1558C39.8023 27.2065 39.7301 27.242 39.6527 27.2591L40.0028 26.9673C48.1713 18.6529 57.8276 10.572 66.6379 3.01612C66.7216 2.92278 66.8202 2.84387 66.9296 2.78268L67.5423 2.22838C67.6403 2.13067 67.7127 2.01047 67.7534 1.87823C67.7941 1.74599 67.8017 1.60581 67.7756 1.46994C63.6039 1.14903 57.6526 0.477995 54.356 2.05335C49.2798 6.22512 45.2248 11.418 40.1778 15.6481C43.6494 11.6513 48.0837 7.33378 51.8471 3.77465C52.2847 3.36622 53.2766 2.92854 52.9848 2.22838C48.6162 3.77206 44.9024 6.75553 42.4533 10.6887C40.4391 12.9246 38.7588 15.4401 37.4647 18.157C36.1077 21.1886 35.0146 24.3315 34.1973 27.5508C33.7888 29.5054 34.1973 31.4017 33.818 33.3854C33.2054 37.8489 32.2135 43.4502 31.9218 48.7014C31.5717 54.536 32.4761 60.3707 31.9218 65.9428C31.0564 75.453 31.0564 85.0222 31.9218 94.5325C32.797 104.16 31.9218 114.779 33.2638 123.706C33.2638 123.268 33.2637 122.976 33.643 122.947C33.643 126.36 34.489 130.095 34.6057 132.895C46.275 123.531 55.9022 112.182 66.988 102.234C63.0496 106.844 57.5067 110.986 54.1518 115.479C56.0467 113.695 58.097 112.084 60.2782 110.665C53.5391 115.858 47.7337 122.072 41.3156 127.936C40.3528 128.782 35.1892 132.808 35.4809 133.479C35.7726 134.15 37.2313 134.471 38.3982 134.441C39.5652 134.412 43.1535 130.853 44.9038 129.453L51.0594 124.668C55.2479 121.629 59.2699 118.367 63.108 114.895C63.7789 114.254 64.3916 113.583 65.0042 112.912C65.6168 112.241 66.2295 111.57 66.9296 110.87C72.9102 104.335 78.3072 97.3331 84.2002 92.6654C80.6702 96.1953 77.257 99.842 73.6687 103.576C72.1808 105.152 70.7513 106.873 69.2635 108.565C68.5342 109.352 67.7173 110.111 66.9296 110.87L65.0042 112.912L64.6541 113.349C64.2749 113.904 64.2749 114.604 63.8956 115.07C62.1248 116.996 60.1707 118.745 58.061 120.292C51.7525 124.908 45.7407 129.917 40.0611 135.287H41.9574C42.2491 132.37 42.5117 133.741 42.9201 133.333C51.2636 127.119 58.5861 119.651 67.4547 113.962C70.7077 109.853 74.1642 105.91 77.8112 102.147C81.3996 98.3833 84.4044 93.8907 88.547 91.1776C80.1743 99.5503 72.2683 109.382 64.1874 117.433C65.0639 116.685 65.7871 115.773 66.317 114.75C59.4905 120.205 52.0805 126.419 45.3998 131.787C44.4079 132.633 42.9492 133.45 43.1243 134.266C44.6404 134.487 46.1748 134.555 47.7045 134.471C53.5391 129.511 60.8324 124.989 64.975 118.95C60.8818 122.563 56.5968 125.952 52.1388 129.103C50.7385 130.211 49.5716 132.02 47.7045 132.166C52.6931 127.236 58.9945 123.647 64.3916 119.125C64.8 119.125 64.9459 118.659 65.5293 118.746C72.8242 109.625 80.8332 101.099 89.4805 93.2489C80.2035 102.497 71.539 112.357 62.8454 122.189C64.3555 121.41 65.718 120.373 66.8713 119.125C66.2586 119.125 65.7336 120.03 65.3543 119.505C66.1712 119.505 66.7254 118.455 67.4547 118.95C65.4121 121.26 63.1008 123.316 60.5699 125.077C58.2069 127.09 56.2814 129.628 54.0351 131.203C54.9103 129.92 56.9524 128.694 57.3025 127.557C55.377 129.219 52.9265 131.378 50.9719 132.924C50.3009 133.45 49.1048 133.887 49.4257 134.675C52.7223 133.829 54.6477 131.028 56.9232 129.103C59.2646 127.036 61.8281 125.236 64.5666 123.735C61.1825 127.002 56.6023 130.62 53.0724 133.654C52.7223 133.975 51.9929 132.399 52.1388 135.317H53.4516C65.7044 123.647 74.5439 112.241 86.7966 102.613C78.1739 110.546 70.0484 119.003 62.4661 127.936C59.7239 130.153 57.1566 132.516 54.4143 134.733C55.6936 134.863 56.9798 134.912 58.2652 134.879C59.753 133.245 62.4078 131.728 63.0496 129.89C61.6201 131.262 60.1323 133.45 58.2652 133.916C60.0279 131.339 62.4864 129.316 65.3543 128.082C70.9221 121.59 77.0743 115.623 83.7334 110.257C74.9814 117.959 67.3089 126.535 59.1988 134.791C61.6493 133.654 62.8454 131.262 65.5293 130.386C73.2191 121.734 81.4115 113.541 90.064 105.852C82.3331 113.203 73.3769 123.356 65.9086 130.766C64.975 131.699 61.9119 134.471 61.8827 133.683C61.5326 134.587 62.2327 134.237 63.0496 134.062C63.0496 134.5 62.4661 134.471 62.2619 134.821C63.8956 135.813 64.8 132.487 64.975 133.858C73.3769 126.069 80.5535 117.025 89.3055 109.528C81.2829 116.733 74.3396 126.448 66.317 133.479C65.9086 133.829 64.8875 134.091 65.1501 134.821C66.492 134.821 67.2505 133.537 68.0674 132.72C74.3105 126.331 80.0868 119.417 87.4093 114.341C80.3202 121.138 73.727 129.453 66.5212 135.287H69.4385C72.7059 129.453 76.2942 128.023 79.5908 124.318C82.7532 120.617 86.2816 117.245 90.1224 114.254C84.6086 120.088 78.4531 126.419 73.0852 132.195C72.2392 133.099 70.8097 134.179 70.9556 134.85C74.1063 135.171 76.411 134.441 79.3866 134.85C83.9152 129.606 88.8511 124.729 94.1483 120.263C90.2682 124.435 85.6589 129.015 81.6913 133.099C81.2245 133.566 80.3785 134.179 80.5535 134.821C81.7496 135.287 82.2456 134.091 82.8582 133.479C86.8838 128.758 91.4241 124.501 96.3946 120.788C92.252 124.523 87.9927 129.394 84.1418 133.275C83.6167 133.77 82.5373 133.975 82.7999 134.791C84.6962 134.266 85.7172 132.166 87.0008 130.766C88.7669 128.07 91.2119 125.886 94.0899 124.435C90.7842 127.664 87.7132 131.125 84.9004 134.791C85.4838 134.791 86.5341 135.025 86.7966 134.616C86.1548 134.762 86.4757 133.975 86.6216 133.829C90.0348 130.591 93.3023 127.236 96.9781 124.26C94.7074 127.382 92.062 130.214 89.1013 132.691C88.372 133.42 87.205 133.333 87.3801 133.858C91.8727 134.004 95.8987 135.258 99.662 132.341H98.6993C101.121 132.341 99.487 125.31 100.596 122.16C100.858 122.393 100.625 123.706 101.004 123.706ZM46.5084 7.85888C45.8374 9.2592 43.591 10.7762 41.9282 11.8556C42.5408 10.5136 45.1664 9.37589 46.5084 7.85888ZM44.7872 38.8991C51.7686 31.223 59.3377 24.1027 67.4256 17.6027C60.4532 23.7874 51.672 31.6642 44.6413 38.8991H44.7872ZM53.2182 46.951C47.9671 52.6106 40.7904 58.0076 35.3934 64.1924C37.9384 60.925 40.878 57.9854 44.1454 55.4404C47.0043 52.6106 50.0967 49.6641 53.0724 46.951H53.2182ZM44.6121 35.4567C46.7044 32.7148 49.0807 30.2016 51.7012 27.9592C58.9653 20.695 67.4839 13.956 75.4482 7.27538C65.5585 16.4358 53.7725 25.1877 44.4663 35.4567H44.6121ZM69.3219 5.34994C61.095 13.4017 51.8179 20.3158 43.6494 28.5427C50.8552 20.3742 60.6866 13.0225 69.176 5.34994H69.3219ZM65.6752 6.10847C65.8503 6.42938 64.975 7.30455 64.3332 7.45041C64.0395 7.91446 63.6519 8.31193 63.1955 8.61732C63.6622 7.56709 64.9167 7.15871 65.5293 6.10847H65.6752ZM55.2604 15.5022C55.5229 15.3564 54.2393 16.7275 53.7142 17.0484C54.1458 16.4556 54.6675 15.9339 55.2604 15.5022V15.5022ZM53.1307 17.4277C52.7042 18.0152 52.1929 18.5362 51.6137 18.9739C51.2928 19.1197 52.5764 17.7486 53.0724 17.4277H53.1307ZM48.9298 21.0743C49.7608 20.5918 50.4774 19.9349 51.0302 19.1489C51.0302 19.6448 49.9216 20.7243 49.1048 21.0743C49.309 21.2202 47.5586 22.5621 47.5878 22.5913C47.6169 22.6205 48.6964 21.7745 48.8714 21.0743H48.9298ZM56.0188 5.55417C55.0561 7.21704 52.4014 8.82154 51.0302 10.7178C51.8471 8.99658 54.5019 7.33374 55.9605 5.55417H56.0188ZM50.4468 10.922C48.4047 13.3142 44.0287 16.7567 41.0822 19.674C43.1243 17.1651 47.4711 13.7518 50.3884 10.922H50.4468ZM40.4987 19.9074C40.7613 19.7616 39.4776 21.1327 38.9525 21.4536C39.3664 20.8651 39.8682 20.3437 40.4403 19.9074H40.4987ZM41.4614 22.5913C48.8131 15.7648 56.7482 8.64652 64.2457 2.17007C57.6234 8.00471 49.484 16.1732 41.8406 22.8831C40.8222 23.9319 39.7304 24.9069 38.5733 25.8004C39.5808 24.7891 40.5258 23.7174 41.4031 22.5913H41.4614ZM47.0043 22.9706C43.8244 25.6837 39.3318 30.3806 35.5101 33.7063C39.0506 29.8491 42.8731 26.2607 46.946 22.9706H47.0043ZM41.6365 50.9769C39.5943 54.2151 35.8018 57.3367 33.2054 60.7499C35.707 57.2552 38.5085 53.9851 41.5781 50.9769H41.6365ZM32.8845 93.3072C35.8956 89.4553 39.2978 85.926 43.0368 82.7757C42.8617 82.3089 42.1324 82.0756 42.3074 81.2587C42.8034 80.967 43.7077 80.9669 43.7077 80.6752V78.954C40.7904 81.8713 37.2605 85.1971 34.0806 88.5228C36.3269 84.8178 41.1989 81.9296 44.2037 78.3705C44.2037 74.2571 43.8828 70.4646 43.912 66.2928C41.0718 68.7486 38.4464 71.4423 36.0644 74.3446C38.1889 71.0831 40.762 68.1369 43.7077 65.5926V61.3918C40.7904 63.3464 38.369 66.1178 35.5101 68.2766C37.9898 65.7969 40.7612 63.5506 43.3868 61.1875C42.4825 61.1875 41.3156 61.3917 40.9071 60.8083C41.8407 58.2118 47.7628 59.3495 50.1259 59.8455C50.8574 59.3111 51.5586 58.7365 52.2264 58.1243C52.4889 58.1243 50.8844 59.4079 50.5051 60.0497C53.9767 60.0497 55.1728 66.3512 52.6348 68.4808C53.2267 68.8361 53.7139 69.3418 54.047 69.9464C54.38 70.5511 54.547 71.2331 54.531 71.9232C57.7692 69.6186 60.8324 67.1097 63.9248 64.6591C61.7076 67.3431 57.3025 69.5311 54.7353 72.5067C54.9455 73.9064 55.0041 75.3246 54.9103 76.7368C57.8276 74.4321 60.7449 72.3025 63.3413 69.8228C61.5326 72.5942 57.2733 74.578 54.9103 77.4953C54.9775 78.0833 55.1146 78.6611 55.3187 79.2166C59.0237 76.5034 62.2036 73.2069 65.8502 70.4646C63.2538 73.3819 59.0237 76.2992 56.0772 79.4791C57.0983 79.4791 58.236 79.3332 58.7611 79.8584C61.1533 78.283 63.4288 75.5699 65.646 74.4905C63.1663 76.2117 61.2117 78.7206 58.7611 80.471C58.7611 81.3753 58.5569 82.8049 58.1777 82.8049H56.6315C49.0756 85.7222 43.0951 95.3202 35.9477 101.359C42.1832 94.579 48.838 88.197 55.873 82.2506C54.7644 79.3333 51.5262 83.2716 50.0384 84.7011C45.6624 88.6395 41.053 93.774 37.3771 97.304C37.5719 96.4141 38.0414 95.6079 38.7191 94.9993C43.5035 90.0982 49.0464 85.0804 54.2393 80.4127C54.0851 79.8829 53.8901 79.366 53.6558 78.8665C48.4046 82.8049 43.0951 88.3477 37.9606 93.0446C42.8129 87.7971 47.9969 82.8665 53.4808 78.283C53.2745 76.8928 53.2061 75.4857 53.2766 74.082C50.6612 75.9478 48.2288 78.0577 46.0124 80.3835C46.6834 80.6752 47.5586 80.7627 47.5295 81.7254C46.9168 82.6589 45.3998 82.6882 43.912 82.6882C39.9464 85.9549 36.222 89.5038 32.7678 93.3072H32.8845ZM63.9248 61.5084C64.2457 62.2961 62.6412 62.792 62.2036 63.4338C61.8243 63.4338 63.4288 62.1502 63.8081 61.5084H63.9248ZM57.5942 86.6266C58.6736 85.6347 61.1825 84.3802 62.7287 83.155C64.9459 81.4046 64.129 79.7125 69.9636 79.7125V76.6493C67.2974 77.5217 65.0113 79.2826 63.4872 81.6379C62.9312 81.6461 62.3836 81.7755 61.8827 82.0172C53.1307 89.3105 45.429 97.975 36.9396 105.589C44.341 97.1909 52.3146 89.3148 60.8032 82.0172C60.8032 81.3462 60.2781 80.296 60.8032 79.7125C61.3284 79.1291 62.2911 79.8875 62.8746 80.0917C64.6846 78.8043 66.4095 77.401 68.0382 75.8908C67.9429 71.0095 67.5532 66.1385 66.8713 61.3042C65.646 60.7499 62.9037 61.6835 62.4661 60.3707C63.6331 57.9493 69.9053 58.2118 71.6557 59.9622C71.3931 61.0416 70.0512 61.0708 68.7384 61.1291C68.7811 65.2305 69.1027 69.3242 69.7011 73.3819C69.7011 73.3819 69.7011 74.6947 70.2845 74.1696C69.9001 75.8636 69.8309 77.6141 70.0804 79.3333C71.3348 79.6833 72.8518 79.7709 73.1727 81.0545C71.9391 81.7246 70.5502 82.0567 69.1468 82.0172C67.6972 82.0925 66.2498 81.833 64.9167 81.2587C54.322 90.151 44.2776 99.679 34.8391 109.79C41.7881 101.507 49.3559 93.7636 57.4775 86.6266H57.5942ZM66.813 46.951C67.1047 46.105 68.8259 44.9963 69.8761 44.267C69.6136 44.5587 67.5131 46.0758 66.6963 46.951H66.813ZM70.4304 44.0337C74.5438 40.6496 79.7075 36.682 84.4336 33.2979C80.6119 36.1861 74.8939 40.7371 70.3138 44.0629L70.4304 44.0337ZM76.2651 81.9588C75.6444 82.1916 74.9603 82.1916 74.3396 81.9588C73.8437 80.7627 74.3396 79.3916 75.7108 80.0334C75.915 80.7044 76.4109 81.0544 76.2651 82.0172V81.9588ZM60.9491 88.0852C57.8276 91.8778 53.685 94.6491 50.3884 98.2375C47.0919 101.826 43.6494 106.173 39.8569 109.732C46.076 101.737 53.2032 94.4925 61.095 88.1435L60.9491 88.0852ZM54.0351 99.4045C48.2004 106.085 41.6073 112.007 36.2102 119.125C41.3301 111.871 47.3159 105.268 54.0351 99.4628V99.4045ZM53.6558 120.672C53.6558 119.651 55.3479 118.659 55.9605 117.609C52.7381 120.007 49.8016 122.767 47.2086 125.835C47.0627 125.164 48.4338 124.377 48.7547 123.531C44.8148 127.198 40.5801 130.535 36.0935 133.508C37.5031 131.949 39.1233 130.594 40.9071 129.482C45.8765 125.831 50.549 121.793 54.8811 117.404C57.5839 114.28 60.5088 111.355 63.6331 108.652C64.7125 107.748 62.8746 109.586 62.4661 109.994C60.249 112.211 58.4694 114.312 56.1356 116.704C64.625 110.053 70.8972 101.184 79.7075 94.8533C70.5471 102.993 62.2911 112.036 53.6558 120.788V120.672ZM60.7449 106.289C61.9702 105.735 62.5245 104.481 63.8081 103.985C55.0561 111.628 46.0416 119.067 37.9314 127.323C44.0578 119.359 53.3933 113.787 60.3657 106.056C67.3381 98.325 74.3105 90.3315 82.7999 84.7594C74.6937 91.1419 67.2993 98.3798 60.7449 106.348V106.289ZM81.8372 80.6169C82.4206 81.1712 84.4336 80.3251 84.5211 81.3753C84.1418 82.9507 80.6411 82.9216 79.3283 82.3381C79.62 78.779 79.1532 74.6947 79.3283 70.6688C79.1532 70.202 77.928 70.6688 78.1905 69.9103C77.8988 68.8017 78.9198 68.9768 79.3283 68.5683C79.1532 65.651 78.7156 63.0546 78.774 59.8164C78.4822 59.1454 77.6071 59.8164 77.0236 59.2621C78.0738 55.4987 84.1419 57.9493 85.7756 59.2621C87.2926 63.7548 86.5924 70.1728 81.1662 69.9978C81.6787 73.5329 81.9031 77.1038 81.8372 80.6752V80.6169ZM86.6216 79.4791C86.8063 79.385 87.0103 79.335 87.2176 79.3329C87.4249 79.3309 87.6298 79.3768 87.8164 79.4673C88.0029 79.5577 88.1659 79.6902 88.2927 79.8542C88.4195 80.0182 88.5065 80.2094 88.547 80.4127C88.9554 83.4759 83.6167 80.9669 86.6216 79.5374V79.4791ZM87.0008 90.0107C87.4367 89.0885 88.1791 88.3461 89.1013 87.9102C88.6345 88.9021 87.5843 89.2521 87.0008 90.069V90.0107ZM85.6589 23.3207C81.2425 26.4405 77.0237 29.8312 73.0268 33.473C72.8518 34.2023 73.8437 33.7938 73.5811 34.6107C73.3186 35.4275 71.8016 35.0775 70.8972 35.3984C68.8259 36.0986 67.5423 38.3157 65.9086 39.3951C65.9086 40.883 66.1128 41.904 66.1128 43.246C73.1727 37.9657 80.2618 31.0516 87.9636 25.7421C80.8453 31.7809 73.5811 37.6739 66.317 43.5669C65.9961 43.8294 66.317 44.6463 65.9086 44.9088C64.6249 44.7046 64.304 45.4632 63.6331 45.8716C62.9621 46.28 64.5666 44.9671 64.7708 44.5295C64.2883 44.1544 63.9358 43.6372 63.7631 43.0509C63.5903 42.4647 63.6061 41.839 63.8081 41.2622C63.458 40.9704 62.6412 41.8748 62.2619 42.2249C62.2619 41.5248 63.8664 40.9996 64.1874 40.1245C64.2069 39.1004 64.1484 38.0763 64.0123 37.0612C63.2552 37.4971 62.5421 38.0052 61.8827 38.5783C61.4451 38.9575 60.3657 40.2119 60.5699 39.541C61.6785 38.374 63.4872 37.8198 64.0123 36.0985C62.7579 35.8943 60.8616 35.34 60.3948 36.4778C60.3948 35.1067 55.2604 36.4778 55.2604 35.515V34.1731C58.1777 33.1812 62.6995 35.2234 63.8373 32.8311C63.3273 30.9253 63.0337 28.9681 62.9621 26.9965C62.0679 27.5722 61.2194 28.2159 60.424 28.9219C60.424 27.58 63.3413 27.2007 62.8746 24.6918C63.6039 24.6918 64.3332 23.5832 64.5958 24.6918C70.7805 19.8782 75.7983 13.9269 82.5957 9.75512C76.5082 14.8896 70.5082 20.1214 64.5958 25.4503C64.3624 27.7842 65.1793 29.097 64.975 31.285C70.5763 27.084 75.0398 22.2705 81.0787 18.4488C76.1192 22.7081 69.847 27.2007 64.0123 31.8684V33.2687C69.847 34.3773 69.5844 31.3725 71.6849 29.6221C76.3492 25.7911 81.2186 22.2169 86.2715 18.9155C80.4369 23.8166 74.1355 28.2217 68.5925 33.5021C72.7351 33.8813 74.4272 31.7226 76.8777 29.6513C80.9374 26.1522 85.247 22.9541 89.7723 20.0825C88.5553 21.361 87.1717 22.4697 85.6589 23.379V23.3207ZM74.748 134.471C79.1449 129.305 83.9444 124.496 89.1013 120.088C84.8061 125.365 79.9981 130.202 74.748 134.529V134.471ZM79.1532 132.749C78.6573 132.749 79.4158 132.399 79.1532 131.991C82.9596 127.747 87.0535 123.77 91.406 120.088C87.3509 124.464 83.2667 128.636 79.1532 132.808V132.749ZM71.6557 134.675C71.5784 134.694 71.4968 134.684 71.4267 134.646C71.3566 134.608 71.3031 134.546 71.2765 134.471C71.2765 134.237 71.2764 134.121 71.4807 134.091C77.7818 128.462 83.7896 122.512 89.4805 116.267C90.1807 115.508 91.0851 114.37 92.1645 114.341C85.9015 121.692 79.0419 128.512 71.6557 134.733V134.675ZM91.0267 132.545C92.5605 129.996 94.6559 127.831 97.1531 126.215C97.1531 126.594 97.7949 126.215 97.9116 126.623C96.1484 129.27 93.9486 131.598 91.406 133.508C91.406 132.37 92.3395 132.137 92.748 131.407C92.1645 131.087 92.1353 132.866 91.0267 132.604V132.545ZM95.4319 132.749C96.6864 131.758 97.1531 130.007 98.6993 129.307C98.1742 130.853 97.124 133.741 95.4319 132.808V132.749ZM93.1272 133.508C94.265 130.824 96.8614 129.54 98.4951 127.382C98.7285 127.382 98.8452 127.382 98.9035 127.557C97.5528 130.023 95.5819 132.095 93.1856 133.566L93.1272 133.508Z" fill="#ECE8D5"/>
<path d="M101.004 132.225C101.353 130.525 101.412 128.78 101.179 127.061C100.814 128.758 100.755 130.507 101.004 132.225Z" fill="#ECE8D5"/>
<path d="M111.711 134.733C112.382 134.733 113.49 134.967 113.84 134.529C113.198 134.646 112.061 134.267 111.711 134.733Z" fill="#ECE8D5"/>
<path d="M27.9833 133.771C26.9039 131.728 28.5376 128.257 27.9833 126.098C26.4955 128.49 26.8164 132.749 24.1324 133.946C26.4917 134.135 28.8623 134.135 31.2215 133.946C30.4339 131.728 29.7046 129.482 28.9169 127.236C28.3626 129.161 29.1794 132.458 27.9833 133.771Z" fill="#ECE8D5"/>
<path d="M17.8021 133.187C18.3564 133.42 19.2899 134.266 19.9317 133.77C18.8523 133.099 18.8231 131.407 18.0063 130.503C17.8892 131.393 17.821 132.289 17.8021 133.187Z" fill="#ECE8D5"/>
<path d="M29.5004 121.109C28.5085 124.027 29.938 126.39 30.4631 128.782C30.3212 126.205 29.9995 123.641 29.5004 121.109V121.109Z" fill="#ECE8D5"/>
<path d="M104.067 133.77C103.949 133.876 103.81 133.955 103.659 134.004C103.741 134.002 103.821 133.979 103.892 133.939C103.964 133.898 104.024 133.84 104.067 133.77Z" fill="#ECE8D5"/>
<path d="M103.105 133.77C103.19 133.816 103.285 133.84 103.382 133.84C103.479 133.84 103.574 133.816 103.659 133.77C103.396 133.829 103.28 133.508 103.105 133.77Z" fill="#ECE8D5"/>
<path d="M85.8632 59.5246C84.142 58.2118 78.0739 55.7612 77.1112 59.5246C77.6947 60.1372 78.5698 59.5246 78.8616 60.0789C78.8616 63.2004 79.2408 65.9136 79.4159 68.8309C79.0075 69.2393 77.9864 69.0642 78.2781 70.1728C78.0156 71.048 79.2408 70.4646 79.4159 70.9314C79.2408 74.9865 79.7076 79.0707 79.4159 82.6007C80.7287 83.1842 84.2295 83.2133 84.6087 81.6379C84.6087 80.5877 82.5082 81.4338 81.9248 80.8795C82.0119 77.359 81.8168 73.8372 81.3413 70.3479C86.68 70.3187 87.351 63.9006 85.8632 59.5246ZM80.8745 68.2766C80.6412 65.1259 79.8243 62.442 79.7076 59.2912C81.954 59.5246 84.2295 59.758 85.0755 61.3917C84.2587 64.3674 84.5796 68.2766 80.8745 68.2766Z" fill="black"/>
<path d="M64.7708 81.2587C66.1039 81.833 67.5514 82.0925 69.001 82.0172C70.4044 82.0567 71.7932 81.7246 73.0269 81.0545C72.706 79.7709 71.189 79.6833 69.9345 79.3333C69.685 77.6141 69.7543 75.8636 70.1388 74.1696C69.7012 74.6947 69.5844 73.4986 69.5553 73.3819C68.9569 69.3242 68.6353 65.2305 68.5926 61.1291C69.8762 61.1291 71.2182 61.1291 71.5099 59.9622C69.7595 58.2118 63.4872 57.9493 62.2911 60.3707C62.7579 61.6835 65.5002 60.7499 66.7254 61.3042C67.3832 66.1406 67.7632 71.0108 67.8632 75.8908C66.2345 77.401 64.5096 78.8043 62.6996 80.0917C62.1161 79.8875 61.3868 79.0999 60.5991 79.7125C59.8114 80.3252 60.5991 81.3462 60.5991 82.0172C52.073 89.3135 44.0605 97.1896 36.6187 105.589C45.1081 97.9749 52.5473 89.3105 61.3576 82.0172C62.0114 81.7743 62.7022 81.646 63.3997 81.6379C64.9238 79.2826 67.2099 77.5217 69.8762 76.6493V79.7125C64.0415 79.7125 64.8584 81.4046 62.6412 83.1549C61.095 84.3802 59.0529 85.6347 57.9735 86.6266C49.7882 93.763 42.1524 101.506 35.1309 109.79C44.4231 99.6873 54.3213 90.1593 64.7708 81.2587V81.2587Z" fill="black"/>
<path d="M88.5472 80.4709C88.5067 80.2676 88.4197 80.0765 88.2929 79.9124C88.1661 79.7484 88.0031 79.616 87.8165 79.5255C87.63 79.4351 87.4251 79.3891 87.2178 79.3912C87.0105 79.3932 86.8064 79.4432 86.6217 79.5374C83.6169 80.9668 88.9556 83.4757 88.5472 80.4709Z" fill="black"/>
<path d="M74.3397 82.0172C74.9604 82.2499 75.6445 82.2499 76.2652 82.0172C76.411 81.0545 75.9151 80.7044 75.7109 80.0917C74.3105 79.4499 73.8437 80.8211 74.3397 82.0172Z" fill="black"/>
<path d="M89.4806 116.325C83.7896 122.571 77.7818 128.52 71.4807 134.15C71.3348 134.15 71.2473 134.296 71.2765 134.529C71.3031 134.604 71.3566 134.667 71.4267 134.704C71.4968 134.742 71.5784 134.752 71.6557 134.733C79.0128 128.499 85.843 121.669 92.077 114.312C91.0851 114.429 90.2682 115.567 89.4806 116.325Z" fill="black"/>
<path d="M89.1012 120.147C83.9443 124.554 79.1448 129.363 74.7479 134.529C79.9951 130.22 84.803 125.403 89.1012 120.147V120.147Z" fill="black"/>
<path d="M14.1845 132.808C12.0548 132.312 12.6675 129.044 11.6756 127.44C11.0921 129.861 12.0548 135.025 14.1845 132.808Z" fill="black"/>
<path d="M98.4951 127.44C96.8614 129.599 94.265 130.882 93.1272 133.566C95.5442 132.159 97.5546 130.148 98.9618 127.732C98.9618 127.732 98.7285 127.411 98.4951 127.44Z" fill="black"/>
<path d="M95.4321 132.808C97.1242 133.741 98.1744 130.853 98.6995 129.365C97.1533 130.065 96.6866 131.816 95.4321 132.808Z" fill="black"/>
<path d="M123.409 135.667C124.684 135.669 125.939 135.348 127.056 134.733C123.584 134.441 120.2 134.529 116.32 134.325C118.829 132.02 121.951 130.386 123.234 126.856C119.879 128.694 117.575 135.258 111.565 133.946C117.72 132.224 120.9 127.557 123.234 122.072C119.967 126.01 117.108 131.407 112.119 132.983C113.111 128.432 118.129 126.856 119.033 122.831C117.34 124.713 115.548 126.505 113.665 128.198C114.177 126.255 115.182 124.476 116.583 123.035C116.291 123.035 115.883 123.035 115.824 122.831C116.729 120.584 119.121 117.871 118.742 115.741C117.037 118.422 115.564 121.243 114.336 124.173C110.972 126.744 108.387 130.197 106.868 134.15C106.226 134.15 105.088 134.383 104.768 133.946C104.913 133.42 105.205 133.012 105.322 132.428C105.73 132.662 106.401 133.216 106.868 132.808C107.831 126.798 112.003 122.976 113.753 118.425C111.507 120.643 109.902 124.552 107.918 126.273C109.377 123.006 111.419 119.33 112.498 116.325C109.607 120.576 107.347 125.224 105.789 130.124C105.388 131.411 104.745 132.609 103.892 133.654V133.654C103.828 133.683 103.759 133.698 103.688 133.698C103.618 133.698 103.548 133.683 103.484 133.654C103.399 133.7 103.304 133.724 103.207 133.724C103.11 133.724 103.015 133.7 102.93 133.654C103.105 133.391 103.221 133.654 103.484 133.654C103.635 133.605 103.774 133.526 103.892 133.42C104.534 122.043 110.048 112.795 113.84 105.939C111.466 109.111 109.432 112.523 107.772 116.121C108.606 112.221 108.92 108.229 108.706 104.247C108.071 109.827 106.959 115.341 105.38 120.73C105.453 117.97 105.297 115.208 104.913 112.474V111.54C104.913 111.22 105.118 111.54 105.176 111.92C105.075 118.727 104.094 125.493 102.259 132.049C102.259 114.37 101.996 97.0414 101.996 80.6752C101.996 75.5407 100.917 68.3349 100.537 63.6089C100.012 57.5117 100.742 51.3562 99.9832 45.4048C99.7498 43.6836 99.108 41.7582 98.8454 40.037C98.2036 35.8944 97.8827 32.627 97.3284 28.922C97.3284 28.3385 97.095 27.58 96.9491 26.9965C94.7875 19.5221 90.8431 12.6843 85.4549 7.07116C79.976 2.36651 72.9209 -0.0928042 65.7046 0.18632C62.2038 0.36136 58.7906 -0.309624 55.7274 0.18632C48.3757 1.32408 44.0581 6.02094 40.2072 10.922C39.0606 12.4039 38.0821 14.0086 37.2899 15.7065C35.0046 19.9487 33.4466 24.5439 32.6805 29.3012C32.1262 34.4065 31.1927 40.4162 30.7551 45.2298C30.2008 51.5895 31.3969 58.4452 30.7551 65.1551C30.4634 68.3349 30.3758 73.732 30.1716 77.9913C30.0011 82.4686 30.1375 86.9523 30.58 91.411C31.6011 103.459 30.5801 114.224 31.1343 127.061C30.4342 120.847 30.5509 113.845 28.6546 108.857C28.8297 112.795 30.1716 118.134 28.4504 121.109C28.4504 119.476 29.0922 118.425 29.0339 116.704C27.9253 116.704 28.6838 118.775 27.8961 119.184C27.1084 115.741 26.525 112.124 25.5915 108.857C25.4456 115.216 28.9172 121.139 25.7665 126.098C25.5623 125.485 25.7665 124.318 25.2122 124.173C24.8621 126.448 25.2122 129.482 24.0453 130.882C23.2284 126.565 23.6076 120.147 23.2867 115.946C22.4839 121.469 22.4839 127.08 23.2867 132.604C19.8735 129.482 20.8945 121.984 20.3694 115.946C19.2831 121.02 19.4837 126.285 20.9529 131.262C21.4489 132.37 22.6158 132.779 22.2949 133.946C21.303 133.946 21.4197 132.924 20.3694 132.983C17.2771 130.065 19.2609 123.093 17.8897 118.63C17.8099 123.055 17.4298 127.471 16.752 131.845C14.7974 128.519 17.2187 123.093 15.2058 119.972C15.2058 121.985 15.2058 125.602 14.8265 128.023C13.2803 123.589 12.376 118.571 11.1799 113.816C11.3927 120.554 13.4074 127.112 17.0145 132.808C13.4966 128.756 11.5322 123.587 11.4716 118.221V119.009C11.4979 124.306 13.1698 129.465 16.256 133.771C14.068 133.771 12.1717 133.45 9.75037 133.216C9.34194 133.216 8.08752 132.458 8 132.458H9.54618C17.0437 135.375 24.6871 134.004 32.3596 134.558C44.1931 135.891 56.1123 136.301 68.0093 135.783C76.1486 135.112 84.9006 135.608 93.3025 135.258C103.28 134.821 112.878 136.454 123.409 135.667ZM17.8022 133.187C17.8211 132.289 17.8893 131.393 18.0064 130.503C18.8232 131.407 18.8524 133.1 19.9318 133.771C19.29 134.266 18.3565 133.42 17.8022 133.187V133.187ZM29.4715 121.109C29.9706 123.641 30.2923 126.205 30.4342 128.782C29.9383 126.39 28.5088 123.91 29.5007 121.109H29.4715ZM24.1036 133.946C26.7876 132.749 26.4666 128.49 27.9545 126.098C28.5088 128.257 26.8751 131.728 27.9545 133.771C29.1506 132.458 28.3337 129.161 28.888 127.236C29.6757 129.482 30.405 131.728 31.1927 133.946C28.8432 134.134 26.4823 134.134 24.1328 133.946H24.1036ZM32.8556 130.124C32.697 129.042 32.6384 127.949 32.6805 126.856C33.1841 129.191 33.506 131.561 33.6432 133.946C32.593 133.508 33.0306 131.67 32.9431 130.124H32.8556ZM99.5747 132.458C95.8114 135.375 91.7855 134.121 87.2928 133.975C87.1178 133.45 88.2847 133.158 89.0141 132.428C91.9786 130.021 94.6253 127.247 96.8908 124.173C93.215 127.09 89.9476 130.62 86.5343 133.858C86.3884 133.858 86.0675 134.85 86.7093 134.675C86.4468 135.112 85.3966 134.675 84.8131 134.879C87.6262 131.222 90.6972 127.771 94.0027 124.552C91.1183 125.993 88.6711 128.179 86.9136 130.882C85.7175 132.283 84.6089 134.383 82.7126 134.908C82.4501 134.091 83.5295 133.887 84.0546 133.362C87.9054 129.511 92.1648 124.61 96.3074 120.905C91.318 124.606 86.7581 128.852 82.7126 133.566C82.1 134.15 81.604 135.375 80.4079 134.908C80.2329 134.266 81.0789 133.654 81.5457 133.187C85.5132 129.219 90.1226 124.435 94.0027 120.351C88.7118 124.823 83.7764 129.7 79.241 134.937C76.3237 134.558 73.9607 135.258 70.8099 134.937C70.6641 134.266 72.0936 133.158 72.9396 132.253C78.2783 126.419 84.463 120.147 89.9767 114.254C86.1349 117.287 82.6067 120.698 79.4452 124.435C76.1486 128.14 72.5603 129.57 69.2929 135.404H66.3756C73.5814 129.57 80.1746 121.255 87.2636 114.458C79.9412 119.534 74.1649 126.565 67.9218 132.954C67.1341 133.771 66.3756 134.908 65.0045 134.996C64.7419 134.266 65.763 133.975 66.1714 133.625C74.1941 126.594 81.1372 116.879 89.1599 109.644C80.4079 117.142 73.2313 126.185 64.8294 133.975C64.6544 132.604 63.75 135.958 62.1163 134.937C62.3206 134.617 62.8456 134.617 62.904 134.179C62.0871 134.354 61.387 134.704 61.7371 133.8C61.7371 134.616 64.8294 131.845 65.763 130.882C73.2313 123.414 82.1875 113.378 89.9184 105.968C81.2659 113.658 73.0735 121.851 65.3837 130.503C62.6998 131.378 61.5037 133.77 59.0531 134.908C67.1633 126.652 74.9234 118.046 83.5878 110.374C76.9217 115.732 70.7688 121.699 65.2087 128.198C62.3382 129.428 59.8787 131.453 58.1196 134.033C59.8408 133.595 61.4745 131.378 62.904 130.007C62.2622 131.845 59.6074 133.362 58.1196 134.996C57.2152 134.996 55.5232 134.996 54.2687 134.821C57.011 132.574 59.5782 130.124 62.3205 127.907C69.9118 119.037 78.0371 110.639 86.651 102.759C74.3982 112.387 65.5588 123.793 53.306 135.463H51.9932C51.8474 132.545 52.5767 134.121 52.9267 133.8C56.4567 130.882 61.0369 127.294 64.421 124.056C61.6725 125.506 59.1067 127.279 56.7776 129.336C54.5021 131.262 52.5767 134.004 49.2801 134.85C48.9592 134.091 50.1553 133.625 50.8263 133.1C52.7809 131.524 55.2314 129.365 57.1569 127.732C56.7484 128.869 54.7647 130.065 53.8895 131.349C56.1358 129.774 58.0613 127.236 60.4243 125.223C62.9552 123.462 65.2665 121.406 67.3092 119.096C66.5798 118.6 66.0255 119.651 65.2087 119.68C65.5879 120.176 66.113 119.184 66.7257 119.271C65.5724 120.519 64.2099 121.556 62.6998 122.335C71.4518 112.503 80.2037 102.643 89.3349 93.3947C80.6875 101.245 72.6786 109.771 65.3837 118.892C64.8003 118.892 64.6544 119.184 64.246 119.271C58.8489 123.793 52.5767 127.382 47.5589 132.312C49.426 132.108 50.4762 130.357 51.9932 129.249C56.4513 126.098 60.7362 122.709 64.8294 119.096C60.6868 125.135 53.3935 129.628 47.5589 134.616C46.0292 134.701 44.4948 134.633 42.9787 134.412C42.8036 133.595 44.2623 132.779 45.2542 131.933C51.9349 126.448 59.3449 120.263 66.1714 114.866C65.6415 115.89 64.9183 116.801 64.0417 117.55C72.1227 109.528 80.0287 99.667 88.4014 91.2943C84.4231 94.526 80.8218 98.1958 77.6656 102.234C74.0199 105.948 70.5634 109.843 67.3092 113.904C58.5572 119.592 51.118 127.294 42.7745 133.508C42.3661 133.916 42.1035 132.545 41.8118 135.463H39.9155C45.5951 130.092 51.6069 125.083 57.9154 120.468C60.0118 118.991 61.9653 117.32 63.75 115.479C64.1293 114.983 64.1293 114.166 64.5085 113.641L64.8586 113.145C64.2459 113.816 63.6333 114.458 62.9623 115.1C59.131 118.57 55.1085 121.823 50.9138 124.844C49.0175 126.361 47.0629 127.761 44.7582 129.628C43.0078 131.028 39.9155 134.587 38.2526 134.616C36.5897 134.646 35.627 134.617 35.3353 133.654C35.0436 132.691 40.1197 128.957 41.1699 128.111C47.5881 122.276 53.3935 116.033 60.1325 110.84C57.9514 112.26 55.9011 113.87 54.0062 115.654C57.3611 111.045 62.7581 106.902 66.8424 102.409C55.7566 112.357 46.1002 123.706 34.4601 133.07C34.4601 130.153 33.6432 126.535 33.4974 123.122C33.1765 123.122 33.0598 123.443 33.1181 123.881C31.7178 114.808 32.6514 104.189 31.7762 94.7075C30.968 85.1331 31.0364 75.5048 31.9804 65.9428C32.5347 60.429 31.6303 54.4777 31.9804 48.7014C32.2721 43.4502 33.264 37.849 33.8766 33.3855C34.1392 31.4892 33.8766 29.5929 34.2559 27.5508C35.0732 24.3315 36.1664 21.1886 37.5233 18.157C38.8175 15.4401 40.4977 12.9247 42.5119 10.6887C44.961 6.75554 48.6748 3.77207 53.0435 2.22839C53.3352 2.92855 52.3433 3.36623 51.9057 3.77466C48.1132 7.33379 43.6789 11.6514 40.2364 15.6481C45.2834 11.418 49.3385 6.22513 54.4146 2.05336C57.7112 0.478006 63.6625 1.14904 67.8343 1.46995C67.8604 1.60583 67.8527 1.746 67.8121 1.87824C67.7714 2.01048 67.6988 2.13068 67.6009 2.22839L68.4177 1.46995C74.69 2.78274 80.3788 3.94964 84.5214 8.00472C85.6883 9.14248 86.8844 10.6303 88.1388 12.0014C92.1448 17.1357 94.9104 23.1262 96.2198 29.5054C97.4451 38.6074 99.1371 48.5847 99.458 58.8245C99.9831 70.4938 101.383 82.3673 101.004 94.0949C100.683 103.168 101.325 114.691 101.004 123.793C100.625 123.793 100.858 122.393 100.596 122.276C99.4872 125.427 101.121 132.458 98.6995 132.458H99.5747ZM100.917 132.224C100.667 130.506 100.727 128.758 101.092 127.061C101.353 128.775 101.324 130.52 101.004 132.224H100.917ZM108.969 133.771C110.077 134.208 108.969 134.15 108.006 134.15C108.639 132.614 109.41 131.14 110.31 129.745C110.31 130.299 109.494 133.245 110.69 133.771C110.34 134.354 109.698 133.566 109.056 133.771H108.969ZM113.607 126.623C113.148 128.594 112.369 130.476 111.302 132.195C111.302 133.1 112.148 132.195 111.857 133.537C109.639 131.232 112.644 128.228 113.607 126.623ZM111.857 134.879C112.207 134.412 113.345 134.879 113.986 134.675C113.607 134.967 112.382 134.587 111.711 134.733L111.857 134.879Z" fill="black"/>
<path d="M40.0613 26.8213C48.609 18.9737 58.1779 10.7177 67.0465 2.54919C66.9371 2.61038 66.8385 2.6892 66.7548 2.78254C57.8861 10.4259 48.2298 18.507 40.0613 26.8213Z" fill="black"/>
<path d="M65.1211 112.999L67.0465 110.957C66.3463 111.657 65.6754 112.328 65.1211 112.999Z" fill="black"/>
<path d="M69.3804 108.652C70.8974 106.96 72.2977 105.239 73.7856 103.664C77.3739 99.9296 80.7872 96.283 84.3171 92.753C78.4825 97.4207 73.027 104.422 67.0465 110.957C67.8342 110.199 68.651 109.44 69.3804 108.652Z" fill="black"/>
<path d="M40.0031 26.9089L39.653 27.2006C39.7304 27.1835 39.8026 27.1481 39.8635 27.0974C39.9244 27.0466 39.9723 26.982 40.0031 26.9089Z" fill="black"/>
<path d="M64.1874 2.0824C56.6899 8.64639 48.7548 15.7647 41.4032 22.5037C40.493 23.5824 39.5188 24.6052 38.4858 25.5669C39.6429 24.6733 40.7348 23.6984 41.7532 22.6495C49.4258 16.0855 57.5651 7.91706 64.1874 2.0824Z" fill="black"/>
<path d="M43.5911 28.5425C51.6429 20.3157 61.095 13.4016 69.2635 5.34985C60.6866 13.0224 50.8552 20.3741 43.5911 28.5425Z" fill="black"/>
<path d="M55.9608 5.5542C54.5022 7.33377 51.8474 8.99661 50.9722 10.7178C52.3433 8.82157 54.9981 7.21708 55.9608 5.5542Z" fill="black"/>
<path d="M65.5297 6.1084C64.917 7.15863 63.6626 7.56702 63.0499 8.61725C63.5064 8.31186 63.8939 7.91439 64.1877 7.45034C64.8295 7.30448 65.7047 6.4293 65.5297 6.1084Z" fill="black"/>
<path d="M51.5556 27.959C48.9351 30.2014 46.5589 32.7146 44.4666 35.4565C53.7728 25.1875 65.5588 16.4355 75.3026 7.27515C67.3383 13.9558 58.8197 20.6948 51.5556 27.959Z" fill="black"/>
<path d="M46.5082 7.85889C45.3121 9.37589 42.6865 10.5136 41.928 11.8556C43.2991 10.6595 45.6914 9.2592 46.5082 7.85889Z" fill="black"/>
<path d="M68.5927 33.5315C74.1648 28.2803 80.5537 23.8751 86.4175 18.9448C81.3233 22.2544 76.4058 25.8281 71.685 29.6515C69.5846 31.4019 69.8471 34.4067 64.0125 33.2981V32.1603C69.8471 27.4342 76.1194 22.9999 81.0788 18.7406C75.04 22.5623 70.2847 27.4926 64.6834 31.5769C64.8877 29.2722 64.2167 27.9594 64.45 25.7422C70.2847 20.4035 76.4403 15.1815 82.5375 10.047C75.711 14.2188 70.8682 20.1701 64.5376 24.9837C64.3042 23.8751 63.5457 24.9837 62.8456 24.9837C63.2248 27.4926 60.5117 27.901 60.3658 29.2138C61.1409 28.5083 61.97 27.8646 62.8456 27.2884C62.9522 29.2648 63.285 31.2225 63.8374 33.1231C62.6997 35.5153 58.1778 33.4731 55.2605 34.465V35.807C55.2605 36.8572 60.3075 35.3986 60.395 36.7697C60.8617 35.632 62.8747 36.1863 64.1291 36.3905C63.5457 38.1117 61.7369 38.666 60.6284 39.8329C60.4241 40.5039 61.4744 39.2495 61.912 38.8702C62.5672 38.305 63.2699 37.7974 64.0125 37.3532C64.1783 38.3652 64.237 39.392 64.1875 40.4164C63.8666 41.2916 62.1454 41.8167 62.2913 42.5169C62.6413 42.1668 63.4582 41.2624 63.8082 41.5541C63.6062 42.131 63.5905 42.7566 63.7632 43.3429C63.936 43.9292 64.2885 44.4464 64.771 44.8215C64.5667 45.2591 63.2248 46.3678 63.6332 46.1636C64.0416 45.9593 64.6251 44.9966 65.9087 45.2008C66.2296 44.9382 65.9087 44.1214 66.3171 43.8588C73.5813 38.0242 80.9038 32.1895 87.9637 26.0339C80.262 31.2851 73.1729 38.1992 66.1129 43.5379C66.1129 42.1959 65.792 41.1749 65.9087 39.6871C67.5424 38.6077 68.8261 36.3904 70.8974 35.6903C71.8017 35.3694 72.9395 35.982 73.5813 34.9026C74.2231 33.8232 72.8519 34.4942 73.027 33.7649C77.0239 30.1231 81.2426 26.7325 85.659 23.6126C87.143 22.7111 88.4974 21.6119 89.6849 20.3452C85.1783 23.2172 80.8881 26.4153 76.8487 29.914C74.4565 31.7519 72.7645 33.9107 68.5927 33.5315ZM65.6754 38.8993C65.4128 38.0533 65.4711 36.9156 65.2961 35.982C66.702 35.4597 68.2098 35.27 69.7012 35.4277C68.4812 36.6971 67.1538 37.8586 65.7337 38.8993H65.6754Z" fill="black"/>
<path d="M50.3885 10.9219C47.4712 13.8392 43.1244 17.1649 41.0239 19.6738C43.9704 16.7273 48.3464 13.3141 50.3885 10.9219Z" fill="black"/>
<path d="M55.2604 15.502C54.6675 15.9337 54.1458 16.4554 53.7142 17.0483C54.181 16.7273 55.4646 15.3562 55.2604 15.502Z" fill="black"/>
<path d="M53.0727 17.4277C52.5767 17.7486 51.2931 19.1198 51.5557 18.974C52.1349 18.5363 52.6461 18.0152 53.0727 17.4277V17.4277Z" fill="black"/>
<path d="M44.6414 38.8991C51.6721 31.6641 60.4532 23.7874 67.2797 17.6027C59.1918 24.1026 51.6228 31.223 44.6414 38.8991V38.8991Z" fill="black"/>
<path d="M49.0467 21.0744C49.8635 20.7243 50.9429 19.6449 50.9721 19.1489C50.4192 19.9349 49.7026 20.5918 48.8716 21.0744C48.6966 21.7746 47.2963 22.2121 47.5297 22.5914C47.7631 22.9706 49.2509 21.2203 49.0467 21.0744Z" fill="black"/>
<path d="M40.4405 19.9072C39.8477 20.3388 39.326 20.8605 38.8944 21.4534C39.4195 21.1325 40.6739 19.7613 40.4405 19.9072Z" fill="black"/>
<path d="M35.4517 33.7061C39.2734 30.3803 43.766 25.6835 46.9459 22.9703C42.8529 26.2582 39.0108 29.8467 35.4517 33.7061V33.7061Z" fill="black"/>
<path d="M70.314 44.063C74.8942 40.7372 80.6121 36.2153 84.3171 33.3271C79.591 36.7112 74.4274 40.6789 70.314 44.063Z" fill="black"/>
<path d="M66.6965 46.9511C67.5134 46.0759 69.6139 44.5588 69.7597 44.2671C68.7095 44.9381 66.9299 46.1051 66.6965 46.9511Z" fill="black"/>
<path d="M35.2476 64.1923C40.6446 58.0076 47.8212 52.523 53.0724 46.9509C50.1551 49.664 47.0044 52.6105 43.8828 55.3819C40.653 57.9524 37.7526 60.9115 35.2476 64.1923V64.1923Z" fill="black"/>
<path d="M33.1473 60.7498C35.6854 57.3366 39.5363 54.215 41.5784 50.9768C38.4886 53.9825 35.6675 57.2527 33.1473 60.7498V60.7498Z" fill="black"/>
<path d="M43.5912 82.8631C45.079 82.8631 46.5085 82.8631 47.2087 81.9004C47.2087 80.9377 46.3627 80.8501 45.6917 80.5584C47.9081 78.2326 50.3404 76.1227 52.9558 74.2569C52.8861 75.6606 52.9544 77.0676 53.16 78.4579C47.6762 83.0413 42.4921 87.972 37.6399 93.2195C42.7744 88.5226 48.0839 82.9798 53.335 79.0414C53.5645 79.5329 53.7595 80.0397 53.9185 80.5584C48.7257 85.2261 43.1828 90.2439 38.3984 95.145C37.7212 95.7421 37.2512 96.5389 37.0564 97.4205C40.7322 93.8905 45.3416 88.6685 49.7176 84.7885C51.2929 83.359 54.5312 79.4789 55.5522 82.2796C48.516 88.2661 41.8612 94.6871 35.6269 101.505C42.7744 95.4659 48.7549 85.8679 56.3107 82.9506H58.1778C58.5571 82.9506 58.7904 81.5211 58.7613 80.6168C61.2118 78.8664 63.1664 76.4742 65.6461 74.7821C63.429 75.8615 61.1535 78.5162 58.7613 80.0916C58.2361 79.5665 57.0984 79.6832 56.0773 79.6832C58.9946 76.4741 63.254 73.5568 65.8504 70.6395C62.2037 73.5568 59.0238 76.7367 55.3188 79.3914C55.1147 78.836 54.9776 78.2582 54.9104 77.6702C57.2734 74.7529 61.5327 72.7691 63.3415 69.9977C60.7159 72.4774 57.7402 74.607 54.9104 76.9117C55.0043 75.4995 54.9456 74.0813 54.7354 72.6816C57.3026 69.7643 61.7078 67.518 63.9249 64.8341C60.8326 67.2846 57.7694 69.7935 54.5312 72.0981C54.5472 71.408 54.3802 70.726 54.0471 70.1213C53.714 69.5167 53.2268 69.011 52.6349 68.6557C55.173 66.5261 53.9768 60.3413 50.5052 60.2246C50.8845 59.5828 52.489 58.2992 52.2556 58.2992C51.4971 58.8243 50.9429 59.5537 50.126 60.0205C47.763 59.5245 41.8408 58.3868 40.9364 60.9832C41.3157 61.5666 42.5118 61.3333 43.4162 61.3624C40.7906 63.7255 37.9899 65.9718 35.5102 68.4515C38.4275 66.2927 40.7906 63.5213 43.7079 61.5667V65.7676C40.7705 68.312 38.2071 71.2584 36.0937 74.5196C38.4858 71.6168 41.121 68.9231 43.9705 66.4677C43.9705 70.6395 44.3205 74.432 44.3789 78.5454C41.4616 82.1045 36.2979 84.9927 34.0807 88.6977C37.2606 85.372 40.7906 82.1629 43.7079 79.1289V80.8501C43.7079 81.1418 42.8035 81.1419 42.3076 81.4336C42.1325 82.2505 42.716 82.4838 42.8619 82.9506C39.1579 86.11 35.7855 89.6388 32.7971 93.4821C36.1413 89.6934 39.7482 86.1449 43.5912 82.8631V82.8631ZM52.9558 73.2943C50.9137 75.774 48.1422 77.5244 45.8667 79.7999C45.575 77.116 45.8667 74.7529 45.4874 71.048C47.3495 71.2026 49.2161 70.8069 50.8553 69.9102C52.3432 70.3478 52.5765 71.9231 53.0725 73.2067L52.9558 73.2943ZM50.8553 61.975C51.6394 63.3835 52.0417 64.9726 52.0223 66.5845C51.2299 67.5624 50.236 68.3578 49.1082 68.9167C47.9805 69.4755 46.7455 69.7845 45.4874 69.8226C44.8165 66.5261 44.8165 65.009 46.8294 63.142C48.1422 61.9459 49.0758 60.9832 50.972 61.8875L50.8553 61.975ZM45.0207 61.3916H48.4923C47.5321 62.4995 46.434 63.4799 45.2249 64.309C44.8165 63.5505 45.1082 62.2376 45.0207 61.304V61.3916Z" fill="black"/>
<path d="M63.8082 61.5084C63.429 62.1502 61.8244 63.4339 62.087 63.4339C62.5246 62.7921 64.0125 62.442 63.8082 61.5084Z" fill="black"/>
<path d="M60.366 106.202C53.3936 113.933 44.0581 119.505 37.9318 127.469C46.0419 119.155 55.0272 111.715 63.8084 104.13C62.5248 104.626 61.9705 105.881 60.7452 106.435C67.306 98.5081 74.7001 91.3096 82.8002 84.9637C74.3108 90.4482 67.3675 98.3833 60.366 106.202Z" fill="black"/>
<path d="M87.001 90.0688C87.5844 89.252 88.6347 88.9019 89.1015 87.9684C88.1792 88.4042 87.4368 89.1466 87.001 90.0688V90.0688Z" fill="black"/>
<path d="M50.3885 98.2958C53.685 94.7075 57.8276 91.936 60.9491 88.1435C53.1051 94.5193 46.0271 101.783 39.8569 109.79C43.5911 106.202 46.8585 102.147 50.3885 98.2958Z" fill="black"/>
<path d="M56.1355 116.704C58.4694 114.312 60.249 112.211 62.4661 109.994C62.8746 109.586 64.7125 107.748 63.633 108.652C60.5088 111.355 57.5839 114.28 54.8811 117.404C50.549 121.792 45.8764 125.831 40.9071 129.482C39.1233 130.593 37.5031 131.948 36.0935 133.508C40.5801 130.534 44.8148 127.197 48.7547 123.53C48.4338 124.376 47.0627 125.164 47.2085 125.835C49.8016 122.767 52.7381 120.007 55.9605 117.608C55.3479 118.659 53.6558 119.65 53.6558 120.671C62.4078 111.919 70.5471 102.934 79.7075 94.7948C70.8972 101.184 64.625 110.052 56.1355 116.704Z" fill="black"/>
<path d="M36.2102 119.184C41.6072 112.065 48.2004 106.143 54.035 99.4626C47.3122 105.286 41.3263 111.908 36.2102 119.184V119.184Z" fill="black"/>
<path d="M79.1533 132.049C79.4158 132.458 78.6573 132.749 79.1533 132.808C83.2667 128.636 87.4093 124.464 91.406 120.147C87.0535 123.828 82.9596 127.805 79.1533 132.049V132.049Z" fill="black"/>
<path d="M91.4061 133.566C93.9487 131.656 96.1485 129.328 97.9118 126.681C97.9118 126.39 97.1824 126.681 97.1533 126.273C94.656 127.89 92.5606 130.055 91.0269 132.604C92.1354 132.866 92.1646 131.087 92.7481 131.466C92.3397 132.195 91.4061 132.458 91.4061 133.566Z" fill="black"/>
</svg>
